<svg
   xmlns:dc="http://purl.org/dc/elements/1.1/"
   xmlns:cc="http://creativecommons.org/ns#"
   xmlns:rdf="http://www.w3.org/1999/02/22-rdf-syntax-ns#"
   xmlns:svg="http://www.w3.org/2000/svg"
   xmlns="http://www.w3.org/2000/svg"
   xmlns:sodipodi="http://sodipodi.sourceforge.net/DTD/sodipodi-0.dtd"
   xmlns:inkscape="http://www.inkscape.org/namespaces/inkscape"
   width="1000"
   height="1000"
   version="1.1"
   id="svg20"
   sodipodi:docname="logo.svg"
   inkscape:version="0.92.3 (2405546, 2018-03-11)"
   inkscape:export-filename="C:\Users\k-sec\Documents\dev\haxe\logo\logo-green-background.png"
   inkscape:export-xdpi="96.959999"
   inkscape:export-ydpi="96.959999">
  <metadata
     id="metadata26">
    <rdf:RDF>
      <cc:Work
         rdf:about="">
        <dc:format>image/svg+xml</dc:format>
        <dc:type
           rdf:resource="http://purl.org/dc/dcmitype/StillImage" />
      </cc:Work>
    </rdf:RDF>
  </metadata>
  <defs
     id="defs24" />
  <sodipodi:namedview
     pagecolor="#ffffff"
     bordercolor="#666666"
     borderopacity="1"
     objecttolerance="10"
     gridtolerance="10"
     guidetolerance="10"
     inkscape:pageopacity="0"
     inkscape:pageshadow="2"
     inkscape:window-width="1920"
     inkscape:window-height="1001"
     id="namedview22"
     showgrid="false"
     inkscape:zoom="0.472"
     inkscape:cx="-287.60421"
     inkscape:cy="474.42533"
     inkscape:window-x="-9"
     inkscape:window-y="-9"
     inkscape:window-maximized="1"
     inkscape:current-layer="svg20" />
  <rect
     style="opacity:0.475;fill:#008000;fill-opacity:0.97087378;stroke:#000000;stroke-width:0;stroke-miterlimit:4;stroke-dasharray:none;stroke-opacity:1"
     id="rect818"
     width="1004.2373"
     height="1008.4746"
     x="0"
     y="-2.1186476" />
  <circle
     cx="502.11862"
     cy="502.11862"
     id="ellipse4"
     r="474.57626"
     style="fill:#ffffff;stroke-width:0.94915253" />
  <circle
     cx="502.11862"
     cy="502.11862"
     id="ellipse6"
     r="417.62711"
     style="fill:#008000;fill-opacity:0.8;stroke-width:0.94915253" />
  <path
     d="M 386.32203,93.16678 C 402.3722,72.086102 497.84435,62.898057 497.84435,62.898057 c 0,0 244.5017,645.423723 337.69898,684.481353 93.19729,39.05763 -52.83621,84.32296 -97.49384,73.3033 C 693.39186,809.66305 511.65762,211.89627 386.85356,90.661017"
     id="path8"
     inkscape:connector-curvature="0"
     style="fill:#ffffff;fill-opacity:0.4;stroke:#008000;stroke-width:6.53193521"
     sodipodi:nodetypes="ccssc" />
  <path
     d="M 472.44813,286.64203 273.3539,765.86915 192.22109,763.36339 c 0,0 224.63594,-553.77356 227.2556,-556.27933"
     id="path10"
     inkscape:connector-curvature="0"
     style="fill:#ffffff;stroke:#008000;stroke-width:6.40519762"
     sodipodi:nodetypes="cccc" />
  <path
     d="M 610.73684,539.66712 504.64057,775.83525 403.91932,773.95593 c 0,0 141.91011,-317.24754 141.91011,-315.99466"
     id="path14"
     inkscape:connector-curvature="0"
     style="fill:#ffffff;stroke:#008000;stroke-width:6.40519762"
     sodipodi:nodetypes="cccc" />
  <path
     d="M 497.62531,315.28745 320.7982,765.07186 236.91593,763.19254 c 0,0 199.74915,-519.94576 201.7139,-523.07797"
     id="path16"
     inkscape:connector-curvature="0"
     style="fill:#ffffff;stroke:#008000;stroke-width:6.40519762"
     sodipodi:nodetypes="cccc" />
  <path
     d="m 315.41084,56.633898 c 16.83797,-21.583729 134.25556,-5.913731 134.25556,-5.913731 0,0 272.99525,671.639323 375.22847,713.050843 102.23322,41.41153 -70.86165,63.46085 -118.66097,51.1978 C 658.43457,802.70576 452.52542,180.84 315.94237,54.128136"
     id="path18"
     inkscape:connector-curvature="0"
     style="fill:#ffffff;stroke:#008000;stroke-width:6.53193521"
     sodipodi:nodetypes="ccssc" />
</svg>


